<?xml version="1.0" encoding="utf-8"?>
<!-- Generator: Adobe Illustrator 15.1.0, SVG Export Plug-In  -->
<!DOCTYPE svg PUBLIC "-//W3C//DTD SVG 1.1//EN" "http://www.w3.org/Graphics/SVG/1.1/DTD/svg11.dtd" [
	<!ENTITY ns_flows "http://ns.adobe.com/Flows/1.0/">
]>
<svg version="1.1"
	 xmlns="http://www.w3.org/2000/svg" xmlns:xlink="http://www.w3.org/1999/xlink" xmlns:a="http://ns.adobe.com/AdobeSVGViewerExtensions/3.0/"
	 x="0px" y="0px" width="165px" height="165px" viewBox="0 0 165 165" enable-background="new 0 0 165 165" xml:space="preserve">
<defs>
</defs>
<path fill-rule="evenodd" clip-rule="evenodd" fill="#FFFFFF" d="M34.447,40.733c0,1.291,0,2.584,0,3.877
	c-3.818,0.22-7.084,1.716-8.908,4.31c-0.235,1.493-1.096,3.517-1.291,5.317c-0.357,3.248,0,7.292,0,11.207
	c0,3.914,0.512,8.213,0,11.208c-0.185,1.052-1.152,2.046-1.152,3.16c-0.569,0.282-1.644,1.401-2.586,1.87
	c-0.559,0.279-0.883-0.146-1.004,0.574c-0.165,0.958,1.248,1.258,2.3,1.58c1.173,1.03,1.726,2.679,2.442,4.167
	c0.252,8.61-0.584,18.302,0.575,26.006c1.146,2.189,1.606,3.742,3.877,5.03c0.22,0.125,0.634-0.021,1.008,0.143
	c0.359,0.159,0.363,0.523,0.575,0.577c1.274,0.318,2.78,0.212,4.164,0.574c-0.082,1.257,0.18,2.858-0.145,3.88
	c-2.612,0.292-3.195-0.699-5.603-0.719c-3.591-1.293-6.256-3.514-7.612-7.038c0.193-1.061-0.317-1.412-0.578-2.013
	c-0.509-8.667,0.375-19.354-0.717-27.012c-0.211-0.461-0.825-0.512-0.576-1.439c-1.699-1.57-4.517-1.719-7.186-2.011
	c0.083-1.022-0.168-2.375,0.15-3.161c1.71-0.061,2.756-0.786,4.736-0.576c0.748-0.494,1.6-0.894,2.299-1.437
	c-0.178-0.85,0.314-1.024,0.576-1.435c-0.38-1.272,0.368-2.313,0.572-3.593c0.308-1.916-0.139-4.236-0.143-6.467
	c0-4.538-0.154-9.591,0-13.648c0.036-0.922,0.127-2.169,0.287-3.02c0.066-0.333,0.471-0.589,0.578-1.003
	c0.292-1.135,0.549-2.523,1.147-3.45c0.216-0.333,0.625-0.661,0.86-1.006c1.307-1.88,3.601-2.915,6.034-3.878
	c1.143,0.039,2.238,0.031,2.731-0.573C32.727,40.733,33.586,40.733,34.447,40.733z"/>
<path fill-rule="evenodd" clip-rule="evenodd" fill="#FFFFFF" d="M130.571,40.733c2.019,0.023,3.282,0.164,5.172,0.573
	c0.272,0.06,0.539,0.448,1.004,0.574c0.329,0.086,0.759-0.095,1.011,0c0.173,0.066,0.204,0.481,0.43,0.576
	c0.338,0.136,0.768-0.062,0.861,0c0.213,0.13,0.497,0.586,0.864,0.861c0.963,0.719,1.476,1.053,2.3,2.156
	c0.523,0.702,0.682,1.176,1.153,2.156c0.492,1.042,0.44,0.758,0.567,1.724c0.072,0.551,0.646,1.173,0.723,1.581
	c0.128,0.714,0.139,1.77,0.139,2.584c0.004,4.105-0.113,9.094,0,13.651c0.057,2.102-0.431,4.279-0.139,6.32
	c0.072,0.525,0.487,1.055,0.573,1.583c0.246,1.501-0.091,2.761,0.717,3.734c1.368,1.654,4.52,1.521,7.039,2.013
	c0,1.053,0,2.108,0,3.161c-2.362,0.379-5.628,0.223-7.039,2.011c-0.317,0.41-0.096,1.193-0.717,1.439
	c-0.295,2.814-0.431,5.073-0.573,8.334c-0.287,6.244,0.41,13.366,0,18.391c-0.071,0.599-0.538,0.801-0.723,1.293
	c0.063,1.557-0.88,2.533-1.576,3.591c-0.504,0.755-0.697,1.511-1.297,2.013c-1.295,1.085-3.119,1.442-4.595,2.441
	c-2.452,0.025-3.109,1.009-5.747,0.719c-0.322-1.022-0.062-2.623-0.147-3.88c1.638,0.054,2.468-0.694,4.169-0.574
	c1.056-0.786,2.381-1.007,3.305-1.87c0.993-0.925,1.275-2.375,2.15-3.447c-0.144-1.252,0.226-1.984,0.578-2.73
	c0-7.761,0-15.518,0-23.278c0.559-0.604,0.34-1.301,0.574-1.867c0.133-0.313,0.718-1.532,1.152-2.013
	c0.688-0.753,4.477-1.571,2.581-2.872c-0.158-0.112-0.542,0.108-0.717,0c-0.41-0.266-1.116-1.285-1.864-1.296
	c-0.312-0.697-0.455-1.557-1.152-1.867c0.174-0.983-0.234-1.389-0.574-1.867c0-3.724,0-7.699,0-11.784c0-3.926,0.548-8.229,0-11.635
	c-0.22-1.373-1.02-2.825-1.146-4.169c-0.589-0.46-1.2-0.909-1.296-1.867c-1.921-1.47-5.092-2.323-7.76-2.586
	C130.571,43.317,130.571,42.024,130.571,40.733z"/>
<path fill-rule="evenodd" clip-rule="evenodd" fill="#FFFFFF" d="M108.155,64.152c-1.587,1.905-4.107,2.879-3.729,6.753
	c0.097,0.521,0.461,0.782,0.71,1.151c0.191,2.781,2.005,3.938,3.742,5.172c1.74,0.197,3.118-0.279,4.307,0
	c1.947,0.448,1.777,2.607,2.73,3.878c0.363,3.022-0.805,3.972-1.296,5.89c-0.805,1.104-3.529,0.205-5.168,0.574
	c-0.317,0.074-0.425,0.53-0.867,0.719c-0.184,0.083-0.542-0.107-0.711,0c-1.594,1.03-2.239,2.188-2.737,4.598
	c-2.574,3.373,1.749,6.016,3.019,7.903c-0.369,1.414,0.256,2.205-0.573,3.45c-0.118,0.182-0.533,0.215-0.717,0.431
	c-0.38,0.445-0.492,1.201-0.718,1.437c-0.206,0.21-0.819,0.369-1.296,0.716c-0.804,0.59-1.998,1.599-3.878,1.15
	c-1.927-0.459-2.58-2.853-4.456-3.591c-0.906,0-1.818,0-2.729,0c-0.399,0.026-0.395,0.469-0.717,0.573
	c-2.73,0.291-4.048,1.988-5.317,3.737c0,1.437,0,2.874,0,4.31c-0.502,1.601-2.259,1.957-3.591,2.73
	c-2.823,0.377-4.281-0.606-6.177-1.149c-1.004-1.055-0.677-3.442-0.717-5.46c-0.104-0.569-0.851-0.494-0.579-1.437
	c-1.175-1.654-3.484-2.164-5.168-3.304c-1.01,0-2.015,0-3.022,0c-1.701,0.933-2.89,2.38-4.31,3.591c-0.717,0-1.433,0-2.155,0
	c-2.377-1.024-3.837-2.961-5.174-5.027c-0.189-3.596,2.29-4.515,3.733-6.467c0-0.958,0-1.916,0-2.873
	c-0.875-0.479-0.229-1.599-1.29-1.867c0.133-1.903-1.296-2.249-1.869-3.451c-0.333,0-0.666,0-1.004,0
	c-1.317-1.639-4.82,0.047-6.034-1.293c-0.24-0.269-0.276-1.198-0.574-1.867c-0.112-0.251-0.528-0.656-0.573-0.861
	c-0.246-1.032,0.271-2.248-0.144-3.304c0.823-1.382,0.983-2.938,2.587-3.737c1.736-0.189,3.13,0.259,4.307,0
	c0.954-0.212,2.957-1.836,3.305-2.876c0.092-0.271-0.102-0.627,0-0.863c0.354-0.828,0.845-1.575,1.29-2.154c0-0.958,0-1.916,0-2.874
	c-1.147-1.578-2.57-2.886-3.733-4.454c0-4.055,2.469-5.43,5.029-7.184c0.718,0,1.436,0,2.158,0c1.622,1.009,2.805,2.461,4.313,3.591
	c0.956,0,1.909,0,2.868,0c1.762-1.097,4.327-1.399,5.46-3.158c0.265-0.415-0.093-1.179,0.579-1.44c0.266-1.596-0.375-3.247,0-4.454
	c0.338-1.096,1.458-0.915,2.006-1.723c1.421-0.308,2.629-0.822,4.6-0.577c0.719,0.146,0.908,0.814,2.015,0.577
	c0.173,0.445,0.384,0.855,1.146,0.716c-0.01,0.679,0.317,1.022,0.718,1.293c0.184,1.744-0.257,3.12,0,4.311
	c0.595,2.779,3.862,3.3,6.034,4.454c0.866,0,1.726,0,2.586,0c1.69-0.945,2.716-2.556,4.313-3.591c1.822-0.08,2.525-0.09,3.59,0.717
	c0.216,0.165,0.391,0.479,0.574,0.576c0.404,0.212,1.096,0.231,1.439,0.574c0.871,0.871,1.051,2.418,1.864,3.163
	C107.903,62.466,108.006,63.517,108.155,64.152z M78.99,71.479c-0.4,0.322-0.688,0.748-1.578,0.577
	c-0.522,0.581-1.064,1.136-2.014,1.291c-1.24,1.065-2.012,2.586-3.165,3.736c0.194,1.15-0.554,1.363-0.711,2.155
	c-0.2,1.759-1.173,3.834,0,5.317c0,0.433,0,0.863,0,1.295c1.485,3.107,3.14,6.052,6.894,6.897c0.23,0.247,0.449,0.507,0.722,0.717
	c2.679,0.415,4.012,0.269,6.752,0c0.292-0.187,0.357-0.594,0.717-0.717c3.276-0.901,5.527-3.555,6.321-6.467
	c0.144-0.287,0.635-0.228,0.573-0.717c0.298-2.728,0.225-3.691,0-6.467c-0.062-0.417-0.614-0.341-0.712-0.719
	c-0.686-3.392-3.807-5.583-7.043-6.897c-1.777,0.337-2.53-1.109-4.164-0.431C80.905,71.384,80.105,71.592,78.99,71.479z"/>
<circle cx="82.5" cy="82.5" r="82.5"/>
<path fill-rule="evenodd" clip-rule="evenodd" fill="#FFFFFF" d="M34.447,40.733c0,1.291,0,2.584,0,3.878
	c-3.818,0.22-7.084,1.716-8.908,4.31c-0.235,1.493-1.096,3.517-1.291,5.317c-0.357,3.247,0,7.291,0,11.207
	c0,3.914,0.512,8.213,0,11.208c-0.185,1.052-1.152,2.046-1.152,3.16c-0.569,0.282-1.644,1.4-2.586,1.869
	c-0.559,0.279-0.883-0.146-1.004,0.574c-0.165,0.957,1.248,1.258,2.3,1.58c1.173,1.029,1.726,2.679,2.442,4.167
	c0.252,8.61-0.584,18.302,0.575,26.006c1.146,2.189,1.606,3.741,3.877,5.03c0.22,0.125,0.634-0.021,1.008,0.143
	c0.359,0.159,0.363,0.522,0.575,0.576c1.274,0.318,2.78,0.213,4.164,0.574c-0.082,1.257,0.18,2.857-0.145,3.88
	c-2.612,0.292-3.195-0.699-5.603-0.72c-3.591-1.293-6.256-3.514-7.612-7.038c0.193-1.061-0.317-1.411-0.578-2.013
	c-0.509-8.667,0.375-19.354-0.717-27.012c-0.211-0.462-0.825-0.513-0.576-1.439c-1.699-1.57-4.517-1.72-7.186-2.011
	c0.083-1.022-0.168-2.375,0.15-3.161c1.71-0.061,2.756-0.786,4.736-0.576c0.748-0.494,1.6-0.894,2.299-1.437
	c-0.178-0.85,0.314-1.023,0.576-1.435c-0.38-1.272,0.368-2.313,0.572-3.593c0.308-1.916-0.139-4.235-0.143-6.467
	c0-4.538-0.154-9.592,0-13.648c0.036-0.922,0.127-2.169,0.287-3.02c0.066-0.333,0.471-0.589,0.578-1.003
	c0.292-1.135,0.549-2.523,1.147-3.45c0.216-0.333,0.625-0.661,0.86-1.007c1.307-1.88,3.601-2.914,6.034-3.878
	c1.143,0.039,2.238,0.031,2.731-0.573C32.727,40.733,33.586,40.733,34.447,40.733z"/>
<path fill-rule="evenodd" clip-rule="evenodd" fill="#FFFFFF" d="M130.571,40.733c2.019,0.023,3.282,0.164,5.172,0.573
	c0.272,0.06,0.539,0.448,1.004,0.574c0.329,0.087,0.759-0.095,1.011,0c0.173,0.066,0.204,0.481,0.43,0.576
	c0.338,0.136,0.768-0.062,0.861,0c0.213,0.13,0.497,0.586,0.864,0.86c0.963,0.72,1.476,1.053,2.3,2.156
	c0.523,0.702,0.682,1.176,1.153,2.156c0.492,1.043,0.44,0.759,0.567,1.724c0.072,0.552,0.646,1.174,0.723,1.581
	c0.128,0.714,0.139,1.77,0.139,2.584c0.004,4.105-0.113,9.094,0,13.651c0.057,2.102-0.431,4.279-0.139,6.32
	c0.072,0.524,0.487,1.055,0.573,1.582c0.246,1.501-0.091,2.762,0.717,3.734c1.368,1.654,4.52,1.521,7.039,2.013
	c0,1.053,0,2.108,0,3.161c-2.362,0.379-5.628,0.223-7.039,2.011c-0.317,0.409-0.096,1.193-0.717,1.439
	c-0.295,2.814-0.431,5.073-0.573,8.334c-0.287,6.243,0.41,13.366,0,18.391c-0.071,0.599-0.538,0.802-0.723,1.294
	c0.063,1.557-0.88,2.532-1.576,3.591c-0.504,0.755-0.697,1.511-1.297,2.013c-1.295,1.085-3.119,1.441-4.595,2.44
	c-2.452,0.025-3.109,1.009-5.747,0.72c-0.322-1.022-0.062-2.623-0.147-3.88c1.638,0.054,2.468-0.694,4.169-0.574
	c1.056-0.786,2.381-1.007,3.305-1.869c0.993-0.925,1.275-2.375,2.15-3.447c-0.144-1.253,0.226-1.984,0.578-2.73
	c0-7.761,0-15.518,0-23.278c0.559-0.604,0.34-1.301,0.574-1.866c0.133-0.313,0.718-1.532,1.152-2.013
	c0.688-0.754,4.477-1.571,2.581-2.872c-0.158-0.112-0.542,0.108-0.717,0c-0.41-0.266-1.116-1.285-1.864-1.296
	c-0.312-0.696-0.455-1.557-1.152-1.866c0.174-0.983-0.234-1.389-0.574-1.867c0-3.724,0-7.699,0-11.784c0-3.926,0.548-8.229,0-11.635
	c-0.22-1.373-1.02-2.825-1.146-4.17c-0.589-0.46-1.2-0.908-1.296-1.867c-1.921-1.47-5.092-2.322-7.76-2.586
	C130.571,43.317,130.571,42.024,130.571,40.733z"/>
<circle fill="#FFFFFF" cx="82.407" cy="82.5" r="26.759"/>
<polygon fill="#FFFFFF" points="95.713,68.753 69.102,68.753 77.923,46.846 86.892,46.846 "/>
<polygon fill="#FFFFFF" points="101.537,82.188 82.719,63.37 104.447,54.118 110.79,60.459 "/>
<polygon fill="#FFFFFF" points="96.153,95.806 96.153,69.194 118.062,78.016 118.062,86.984 "/>
<polygon fill="#FFFFFF" points="82.719,101.63 101.537,82.812 110.79,104.541 104.447,110.882 "/>
<polygon fill="#FFFFFF" points="69.102,96.247 95.713,96.247 86.892,118.154 77.923,118.154 "/>
<polygon fill="#FFFFFF" points="63.277,82.812 82.096,101.63 60.367,110.882 54.024,104.541 "/>
<polygon fill="#FFFFFF" points="68.66,69.194 68.66,95.806 46.753,86.984 46.753,78.016 "/>
<polygon fill="#FFFFFF" points="82.096,63.37 63.277,82.188 54.024,60.46 60.367,54.118 "/>
<circle cx="82.407" cy="82.5" r="13.38"/>
</svg>
